<svg width="24" height="24" viewBox="0 0 24 24" fill="none" xmlns="http://www.w3.org/2000/svg">
<g id="google-symbol 1" clip-path="url(#clip0_397_147)">
<g id="Group">
<path id="Vector" d="M23.8068 10.141C23.9135 10.141 24 10.2275 24 10.3342V12.3623C24 13.1214 23.9295 13.8636 23.7942 14.5836C22.7481 20.1762 17.8211 24.4027 11.9154 24.362C5.2887 24.3163 -0.0146415 18.962 3.03692e-05 12.3353C0.0146085 5.7204 5.3817 0.362305 12 0.362305C15.2425 0.362305 18.1844 1.64865 20.3444 3.73815C20.4224 3.81357 20.4244 3.93788 20.3477 4.01457L17.4784 6.88384C17.4045 6.95771 17.2852 6.95963 17.2095 6.88759C15.8538 5.59716 14.0196 4.80493 12 4.80493C7.82947 4.80493 4.47111 8.13943 4.4428 12.3099C4.41434 16.5076 7.80884 19.9196 12 19.9196C15.4005 19.9196 18.2767 17.6732 19.2251 14.5836H12.1932C12.0865 14.5836 12 14.4971 12 14.3904V10.3341C12 10.2274 12.0865 10.1409 12.1932 10.1409H23.8068V10.141Z" fill="#2196F3"/>
<g id="Group_2">
<path id="Vector_2" d="M23.8064 10.1411H22.3577C22.4644 10.1411 22.5509 10.2276 22.5509 10.3343V12.3624C22.5509 13.1215 22.4804 13.8637 22.3451 14.5837C21.3471 19.9191 16.8169 24.0111 11.2744 24.3408C11.4865 24.3533 11.6999 24.3606 11.9149 24.3621C17.8207 24.4028 22.7477 20.1763 23.7938 14.5837C23.929 13.8637 23.9995 13.1215 23.9995 12.3624V10.3342C23.9995 10.2276 23.913 10.1411 23.8064 10.1411Z" fill="#1E88E5"/>
</g>
<path id="Vector_3" d="M5.13565 9.1974L1.49121 6.56415C3.5358 2.86613 7.47574 0.362305 12 0.362305C15.2425 0.362305 18.1845 1.64865 20.3444 3.73815C20.4224 3.81357 20.4244 3.93788 20.3477 4.01457L17.4784 6.88384C17.4047 6.95757 17.2854 6.95987 17.2099 6.88796C15.8542 5.5973 14.0198 4.80498 12 4.80498C8.95634 4.80498 6.33274 6.60423 5.13565 9.1974Z" fill="#F44336"/>
<path id="Vector_4" d="M4.08301 8.43719L5.13512 9.19736C6.22777 6.83045 8.50909 5.12579 11.2133 4.84618C11.2336 4.84398 11.2532 4.84131 11.2739 4.83934C11.0359 4.81674 10.7948 4.80493 10.5508 4.80493C7.80127 4.80493 5.40502 6.25445 4.08301 8.43719Z" fill="#E53935"/>
<path id="Vector_5" d="M18.8956 3.73815C18.9736 3.81357 18.9756 3.93788 18.8989 4.01462L16.57 6.34351C16.7931 6.5132 17.0067 6.6947 17.2093 6.88763C17.285 6.95968 17.4044 6.95776 17.4783 6.88388L20.3475 4.01462C20.4243 3.93788 20.4222 3.81362 20.3442 3.73815C18.1843 1.64865 15.2423 0.362305 11.9998 0.362305C11.7565 0.362305 11.5151 0.370414 11.2754 0.384711C14.2304 0.560727 16.8976 1.8054 18.8956 3.73815Z" fill="#E53935"/>
<path id="Vector_6" d="M20.8027 20.5174C18.6113 22.8822 15.4783 24.3623 12 24.3623C7.30187 24.3623 3.23443 21.6624 1.26465 17.7292L4.98535 15.1794C6.10187 17.9576 8.82202 19.9196 12 19.9196C13.9943 19.9196 15.8081 19.1469 17.1583 17.8846L20.8027 20.5174Z" fill="#4CAF50"/>
<path id="Vector_7" d="M4.98485 15.1794L3.8877 15.9313C5.16199 18.3052 7.66788 19.9195 10.5507 19.9195C10.7945 19.9195 11.0355 19.9076 11.2734 19.885C8.41174 19.6122 6.01526 17.7435 4.98485 15.1794Z" fill="#43A047"/>
<path id="Vector_8" d="M11.9999 24.3622C15.4782 24.3622 18.6112 22.8822 20.8026 20.5174L19.91 19.8726C17.8524 22.4333 14.7656 24.1321 11.2773 24.3404C11.5164 24.3547 11.7573 24.3622 11.9999 24.3622Z" fill="#43A047"/>
<path id="Vector_9" d="M4.44267 12.3624C4.44267 13.3581 4.63533 14.3089 4.98544 15.1796L1.26469 17.7293C0.455391 16.1145 0 14.2916 0 12.3624C0 10.2594 0.540844 8.28283 1.49119 6.56421L5.13562 9.19746C4.69088 10.1598 4.44267 11.2324 4.44267 12.3624Z" fill="#FFC107"/>
<path id="Vector_10" d="M3.88846 15.9314L4.98562 15.1796C4.63551 14.3089 4.44285 13.3581 4.44285 12.3623C4.44285 11.2324 4.69105 10.1598 5.1358 9.19743L4.08369 8.43726C3.40049 9.5653 3.00398 10.889 2.99432 12.3099C2.98541 13.6203 3.31012 14.8541 3.88846 15.9314Z" fill="#FFB300"/>
</g>
</g>
<defs>
<clipPath id="clip0_397_147">
<rect width="24" height="24" fill="white" transform="translate(0 0.362305)"/>
</clipPath>
</defs>
</svg>
