<svg width="11" height="19" viewBox="0 0 11 19" fill="none" xmlns="http://www.w3.org/2000/svg">
<path d="M10.9459 2.28571C10.9459 2.125 10.8745 1.98214 10.7674 1.875L9.87451 0.982141C9.76737 0.875 9.60666 0.80357 9.4638 0.80357C9.32094 0.80357 9.16023 0.875 9.05308 0.982141L0.731655 9.30357C0.624512 9.41071 0.553083 9.57143 0.553083 9.71428C0.553083 9.85714 0.624512 10.0179 0.731655 10.125L9.05308 18.4464C9.16023 18.5536 9.32094 18.625 9.4638 18.625C9.60666 18.625 9.76737 18.5536 9.87451 18.4464L10.7674 17.5536C10.8745 17.4464 10.9459 17.2857 10.9459 17.1429C10.9459 17 10.8745 16.8393 10.7674 16.7321L3.74951 9.71428L10.7674 2.69643C10.8745 2.58928 10.9459 2.42857 10.9459 2.28571Z" fill="#717D8F"/>
</svg>
