<svg width="23" height="19" viewBox="0 0 23 19" fill="none" xmlns="http://www.w3.org/2000/svg">
<path d="M18.1583 18.16C16.2863 18.16 14.8703 17.392 13.9103 15.856C13.0943 14.56 12.6863 12.976 12.6863 11.104C12.6863 8.704 13.2863 6.544 14.4863 4.624C15.7343 2.704 17.6063 1.168 20.1023 0.0159955L20.7503 1.312C19.2623 1.936 17.9663 2.92 16.8623 4.264C15.8063 5.608 15.2783 6.976 15.2783 8.368C15.2783 8.944 15.3503 9.448 15.4943 9.88C16.2623 9.256 17.1503 8.944 18.1583 8.944C19.4543 8.944 20.5343 9.376 21.3983 10.24C22.3103 11.056 22.7663 12.16 22.7663 13.552C22.7663 14.848 22.3103 15.952 21.3983 16.864C20.5343 17.728 19.4543 18.16 18.1583 18.16ZM5.91833 18.16C4.04633 18.16 2.63033 17.392 1.67033 15.856C0.854328 14.56 0.446328 12.976 0.446328 11.104C0.446328 8.704 1.04633 6.544 2.24633 4.624C3.49433 2.704 5.36633 1.168 7.86233 0.0159955L8.51033 1.312C7.02233 1.936 5.72633 2.92 4.62233 4.264C3.56633 5.608 3.03833 6.976 3.03833 8.368C3.03833 8.944 3.11033 9.448 3.25433 9.88C4.02233 9.256 4.91033 8.944 5.91833 8.944C7.21433 8.944 8.29433 9.376 9.15833 10.24C10.0703 11.056 10.5263 12.16 10.5263 13.552C10.5263 14.848 10.0703 15.952 9.15833 16.864C8.29433 17.728 7.21433 18.16 5.91833 18.16Z" fill="#4C86E7" fill-opacity="0.4"/>
</svg>
