<svg width="22" height="19" viewBox="0 0 22 19" fill="none" xmlns="http://www.w3.org/2000/svg">
<path d="M17.4411 18.1C15.6211 18.1 14.2444 17.3533 13.3111 15.86C12.5178 14.6 12.1211 13.06 12.1211 11.24C12.1211 8.90666 12.7044 6.80666 13.8711 4.94C15.0844 3.07333 16.9044 1.58 19.3311 0.459996L19.9611 1.72C18.5144 2.32666 17.2544 3.28333 16.1811 4.59C15.1544 5.89666 14.6411 7.22666 14.6411 8.58C14.6411 9.14 14.7111 9.63 14.8511 10.05C15.5978 9.44333 16.4611 9.14 17.4411 9.14C18.7011 9.14 19.7511 9.56 20.5911 10.4C21.4778 11.1933 21.9211 12.2667 21.9211 13.62C21.9211 14.88 21.4778 15.9533 20.5911 16.84C19.7511 17.68 18.7011 18.1 17.4411 18.1ZM5.54109 18.1C3.72109 18.1 2.34443 17.3533 1.41109 15.86C0.617761 14.6 0.221094 13.06 0.221094 11.24C0.221094 8.90666 0.804427 6.80666 1.97109 4.94C3.18443 3.07333 5.00443 1.58 7.43109 0.459996L8.06109 1.72C6.61443 2.32666 5.35443 3.28333 4.28109 4.59C3.25443 5.89666 2.74109 7.22666 2.74109 8.58C2.74109 9.14 2.81109 9.63 2.95109 10.05C3.69776 9.44333 4.56109 9.14 5.54109 9.14C6.80109 9.14 7.85109 9.56 8.69109 10.4C9.57776 11.1933 10.0211 12.2667 10.0211 13.62C10.0211 14.88 9.57776 15.9533 8.69109 16.84C7.85109 17.68 6.80109 18.1 5.54109 18.1Z" fill="white" fill-opacity="0.4"/>
</svg>
