<svg width="12" height="19" viewBox="0 0 12 19" fill="none" xmlns="http://www.w3.org/2000/svg">
<path d="M11.3745 9.71428C11.3745 9.57143 11.3031 9.41071 11.1959 9.30357L2.87451 0.982141C2.76737 0.875 2.60665 0.80357 2.4638 0.80357C2.32094 0.80357 2.16023 0.875 2.05308 0.982141L1.16023 1.875C1.05308 1.98214 0.981655 2.14286 0.981655 2.28571C0.981655 2.42857 1.05308 2.58928 1.16023 2.69643L8.17808 9.71428L1.16023 16.7321C1.05308 16.8393 0.981655 17 0.981655 17.1429C0.981655 17.3036 1.05308 17.4464 1.16023 17.5536L2.05308 18.4464C2.16023 18.5536 2.32094 18.625 2.4638 18.625C2.60665 18.625 2.76737 18.5536 2.87451 18.4464L11.1959 10.125C11.3031 10.0179 11.3745 9.85714 11.3745 9.71428Z" fill="#717D8F"/>
</svg>
