<svg width="17" height="16" viewBox="0 0 17 16" fill="none" xmlns="http://www.w3.org/2000/svg">
<g id="search_icon">
<path id="Vector" d="M12.1875 9.75C12.8125 8.76667 13.1792 7.6 13.1792 6.34583C13.1792 2.84167 10.3417 0 6.84167 0C3.3375 0 0.5 2.84167 0.5 6.34583C0.5 9.85 3.3375 12.6917 6.8375 12.6917C8.10833 12.6917 9.29167 12.3167 10.2833 11.675L10.5708 11.475L15.0958 16L16.5 14.5708L11.9792 10.0458L12.1875 9.75ZM10.3917 2.8C11.3375 3.74583 11.8583 5.00417 11.8583 6.34167C11.8583 7.67917 11.3375 8.9375 10.3917 9.88333C9.44583 10.8292 8.1875 11.35 6.85 11.35C5.5125 11.35 4.25417 10.8292 3.30833 9.88333C2.3625 8.9375 1.84167 7.67917 1.84167 6.34167C1.84167 5.00417 2.3625 3.74583 3.30833 2.8C4.25417 1.85417 5.5125 1.33333 6.85 1.33333C8.1875 1.33333 9.44583 1.85417 10.3917 2.8Z" fill="#16133E"/>
</g>
</svg>
