<svg width="19" height="18" viewBox="0 0 19 18" fill="none" xmlns="http://www.w3.org/2000/svg">
<g id="vuesax/outline/eye-slash">
<g id="eye-slash">
<path id="Vector" d="M7.60293 11.4599C7.46043 11.4599 7.31793 11.4074 7.20543 11.2949C6.59043 10.6799 6.25293 9.86244 6.25293 8.99994C6.25293 7.20744 7.70793 5.75244 9.50043 5.75244C10.3629 5.75244 11.1804 6.08994 11.7954 6.70494C11.9004 6.80994 11.9604 6.95244 11.9604 7.10244C11.9604 7.25244 11.9004 7.39494 11.7954 7.49994L8.00043 11.2949C7.88793 11.4074 7.74543 11.4599 7.60293 11.4599ZM9.50043 6.87744C8.33043 6.87744 7.37793 7.82994 7.37793 8.99994C7.37793 9.37494 7.47543 9.73494 7.65543 10.0499L10.5504 7.15494C10.2354 6.97494 9.87543 6.87744 9.50043 6.87744Z" fill="#09080D"/>
<path id="Vector_2" d="M4.69988 13.8826C4.57238 13.8826 4.43738 13.8376 4.33238 13.7476C3.52988 13.0651 2.80988 12.2251 2.19488 11.2501C1.39988 10.0126 1.39988 7.99511 2.19488 6.75011C4.02488 3.88511 6.68738 2.23511 9.49988 2.23511C11.1499 2.23511 12.7774 2.80511 14.2024 3.87761C14.4499 4.06511 14.5024 4.41761 14.3149 4.66511C14.1274 4.91261 13.7749 4.96511 13.5274 4.77761C12.2974 3.84761 10.9024 3.36011 9.49988 3.36011C7.07738 3.36011 4.75988 4.81511 3.13988 7.35761C2.57738 8.23511 2.57738 9.76511 3.13988 10.6426C3.70238 11.5201 4.34738 12.2776 5.05988 12.8926C5.29238 13.0951 5.32238 13.4476 5.11988 13.6876C5.01488 13.8151 4.85738 13.8826 4.69988 13.8826Z" fill="#09080D"/>
<path id="Vector_3" d="M9.49993 15.7651C8.50242 15.7651 7.52742 15.5626 6.58992 15.1651C6.30492 15.0451 6.16992 14.7151 6.28992 14.4301C6.40992 14.1451 6.73992 14.0101 7.02492 14.1301C7.81992 14.4676 8.65242 14.6401 9.49242 14.6401C11.9149 14.6401 14.2324 13.1851 15.8524 10.6426C16.4149 9.76512 16.4149 8.23512 15.8524 7.35762C15.6199 6.99012 15.3649 6.63762 15.0949 6.30762C14.8999 6.06762 14.9374 5.71512 15.1774 5.51262C15.4174 5.31762 15.7699 5.34762 15.9724 5.59512C16.2649 5.95512 16.5499 6.34512 16.8049 6.75012C17.5999 7.98762 17.5999 10.0051 16.8049 11.2501C14.9749 14.1151 12.3124 15.7651 9.49993 15.7651Z" fill="#09080D"/>
<path id="Vector_4" d="M10.0177 12.2025C9.75518 12.2025 9.51518 12.015 9.46268 11.745C9.40268 11.4375 9.60518 11.145 9.91268 11.0925C10.7377 10.9425 11.4277 10.2525 11.5777 9.42751C11.6377 9.12001 11.9302 8.92501 12.2377 8.97751C12.5452 9.03751 12.7477 9.33002 12.6877 9.63752C12.4477 10.935 11.4127 11.9625 10.1227 12.2025C10.0852 12.195 10.0552 12.2025 10.0177 12.2025Z" fill="#09080D"/>
<path id="Vector_5" d="M2.00008 17.0625C1.85758 17.0625 1.71508 17.01 1.60258 16.8975C1.38508 16.68 1.38508 16.32 1.60258 16.1025L7.20508 10.5C7.42258 10.2825 7.78258 10.2825 8.00008 10.5C8.21758 10.7175 8.21758 11.0775 8.00008 11.295L2.39758 16.8975C2.28508 17.01 2.14258 17.0625 2.00008 17.0625Z" fill="#09080D"/>
<path id="Vector_6" d="M11.3975 7.66508C11.255 7.66508 11.1125 7.61258 11 7.50008C10.7825 7.28258 10.7825 6.92258 11 6.70508L16.6025 1.10258C16.82 0.885078 17.18 0.885078 17.3975 1.10258C17.615 1.32008 17.615 1.68008 17.3975 1.89758L11.795 7.50008C11.6825 7.61258 11.54 7.66508 11.3975 7.66508Z" fill="#09080D"/>
</g>
</g>
</svg>
